<svg xmlns="http://www.w3.org/2000/svg" xmlns:xlink="http://www.w3.org/1999/xlink" width="1000" zoomAndPan="magnify" viewBox="0 0 750 749.999995" height="1000" preserveAspectRatio="xMidYMid meet" version="1.0"><defs><clipPath id="094f6796cf"><path d="M 275.261719 522.316406 L 407 522.316406 L 407 654.34375 L 275.261719 654.34375 Z M 275.261719 522.316406 " clip-rule="nonzero"/></clipPath><clipPath id="a19ba3264c"><path d="M 0 95.625 L 750 95.625 L 750 561 L 0 561 Z M 0 95.625 " clip-rule="nonzero"/></clipPath></defs><g clip-path="url(#094f6796cf)"><path fill="#fe5100" d="M 341.105469 618.300781 C 324.660156 618.300781 311.328125 604.96875 311.328125 588.523438 C 311.328125 572.078125 324.660156 558.742188 341.105469 558.742188 C 357.554688 558.742188 370.886719 572.078125 370.886719 588.523438 C 370.886719 604.96875 357.554688 618.300781 341.105469 618.300781 Z M 403.15625 569.191406 C 404.566406 568.699219 405.417969 567.347656 404.917969 565.9375 C 403.355469 561.539062 401.363281 557.359375 398.980469 553.4375 C 398.199219 552.160156 396.617188 551.960938 395.339844 552.738281 C 389.574219 556.230469 382.1875 555.988281 376.667969 551.988281 C 375.460938 551.117188 373.730469 549.386719 372.859375 548.179688 C 369.195312 543.121094 368.683594 536.5 371.3125 530.996094 C 371.957031 529.644531 371.601562 528.085938 370.25 527.433594 C 366.117188 525.460938 361.757812 523.886719 357.226562 522.773438 C 355.769531 522.421875 354.507812 523.402344 354.152344 524.851562 C 352.351562 532.261719 345.691406 537.757812 337.726562 537.757812 C 330.355469 537.757812 324.09375 533.046875 321.78125 526.472656 C 321.28125 525.0625 319.929688 524.210938 318.515625 524.714844 C 314.125 526.273438 309.9375 528.265625 306.019531 530.652344 C 304.742188 531.425781 304.542969 533.015625 305.320312 534.296875 C 309.273438 540.804688 308.445312 549.394531 302.820312 555.023438 C 297.609375 560.230469 289.867188 561.324219 283.578125 558.324219 C 282.230469 557.679688 280.667969 558.03125 280.023438 559.382812 C 278.042969 563.507812 276.46875 567.867188 275.351562 572.410156 C 274.996094 573.867188 275.984375 575.132812 277.4375 575.488281 C 284.84375 577.28125 290.339844 583.945312 290.339844 591.910156 C 290.339844 599.277344 285.625 605.535156 279.046875 607.851562 C 277.640625 608.355469 276.785156 609.703125 277.289062 611.117188 C 278.847656 615.503906 280.859375 619.679688 283.246094 623.597656 C 284.023438 624.882812 285.617188 625.082031 286.894531 624.308594 C 293.394531 620.359375 301.984375 621.191406 307.605469 626.8125 C 312.8125 632.023438 313.902344 639.765625 310.914062 646.046875 C 310.269531 647.398438 310.621094 648.953125 311.976562 649.601562 C 316.105469 651.574219 320.457031 653.160156 324.996094 654.273438 C 326.449219 654.628906 327.710938 653.640625 328.0625 652.191406 C 329.867188 644.789062 336.53125 639.292969 344.484375 639.292969 C 351.859375 639.292969 358.117188 643.996094 360.433594 650.570312 C 360.933594 651.984375 362.285156 652.832031 363.699219 652.332031 C 368.09375 650.777344 372.277344 648.785156 376.195312 646.398438 C 377.476562 645.621094 377.675781 644.03125 376.894531 642.753906 C 373.402344 636.992188 373.644531 629.605469 377.640625 624.085938 C 378.515625 622.878906 380.246094 621.148438 381.453125 620.269531 C 386.511719 616.609375 393.136719 616.097656 398.636719 618.730469 C 399.988281 619.371094 401.546875 619.019531 402.195312 617.667969 C 404.171875 613.535156 405.742188 609.175781 406.859375 604.636719 C 407.214844 603.1875 406.230469 601.917969 404.777344 601.570312 C 397.375 599.761719 391.871094 593.097656 391.871094 585.140625 C 391.871094 577.773438 396.582031 571.511719 403.15625 569.191406 " fill-opacity="1" fill-rule="nonzero"/></g><path fill="#fe5100" d="M 427.757812 534.402344 C 415.476562 537.015625 403.398438 529.171875 400.785156 516.878906 C 398.167969 504.59375 406.011719 492.511719 418.304688 489.894531 C 430.59375 487.285156 442.667969 495.132812 445.285156 507.421875 C 447.894531 519.703125 440.050781 531.792969 427.757812 534.402344 Z M 466.328125 487.855469 C 467.300781 487.257812 467.71875 486.109375 467.125 485.136719 C 465.261719 482.105469 463.105469 479.296875 460.703125 476.742188 C 459.914062 475.910156 458.707031 476.015625 457.871094 476.800781 C 454.121094 480.328125 448.5625 481.3125 443.804688 479.207031 C 442.761719 478.746094 441.191406 477.726562 440.347656 476.960938 C 436.808594 473.761719 435.371094 468.894531 436.464844 464.363281 C 436.730469 463.253906 436.222656 462.148438 435.105469 461.878906 C 431.703125 461.058594 428.203125 460.574219 424.632812 460.460938 C 423.488281 460.429688 422.703125 461.363281 422.671875 462.503906 C 422.5 468.324219 418.394531 473.488281 412.441406 474.757812 C 406.9375 475.921875 401.519531 473.402344 398.738281 468.859375 C 398.140625 467.886719 396.996094 467.464844 396.019531 468.058594 C 392.988281 469.917969 390.179688 472.074219 387.632812 474.480469 C 386.789062 475.265625 386.898438 476.484375 387.679688 477.316406 C 391.671875 481.546875 392.410156 488.101562 389.101562 493.195312 C 386.039062 497.914062 380.421875 499.964844 375.253906 498.726562 C 374.140625 498.449219 373.03125 498.964844 372.761719 500.078125 C 371.945312 503.480469 371.457031 506.980469 371.339844 510.550781 C 371.3125 511.695312 372.253906 512.480469 373.390625 512.515625 C 379.210938 512.6875 384.375 516.796875 385.640625 522.742188 C 386.8125 528.253906 384.28125 533.671875 379.734375 536.445312 C 378.765625 537.050781 378.34375 538.191406 378.941406 539.171875 C 380.800781 542.203125 382.964844 545 385.371094 547.546875 C 386.15625 548.382812 387.375 548.277344 388.207031 547.496094 C 392.445312 543.515625 398.992188 542.777344 404.078125 546.082031 C 408.800781 549.144531 410.847656 554.753906 409.605469 559.925781 C 409.339844 561.035156 409.851562 562.144531 410.96875 562.417969 C 414.363281 563.234375 417.871094 563.722656 421.441406 563.835938 C 422.582031 563.867188 423.367188 562.929688 423.398438 561.792969 C 423.570312 555.976562 427.675781 550.808594 433.621094 549.546875 C 439.132812 548.375 444.550781 550.898438 447.328125 555.441406 C 447.929688 556.410156 449.074219 556.835938 450.046875 556.246094 C 453.085938 554.378906 455.890625 552.230469 458.441406 549.816406 C 459.277344 549.039062 459.171875 547.816406 458.386719 546.980469 C 454.859375 543.238281 453.871094 537.679688 455.980469 532.917969 C 456.441406 531.875 457.460938 530.316406 458.222656 529.460938 C 461.425781 525.921875 466.289062 524.492188 470.816406 525.582031 C 471.925781 525.847656 473.039062 525.335938 473.308594 524.21875 C 474.125 520.820312 474.609375 517.316406 474.722656 513.746094 C 474.753906 512.605469 473.816406 511.820312 472.675781 511.785156 C 466.855469 511.617188 461.691406 507.503906 460.429688 501.5625 C 459.261719 496.054688 461.785156 490.632812 466.328125 487.855469 " fill-opacity="1" fill-rule="nonzero"/><g clip-path="url(#a19ba3264c)"><path fill="#fe5100" d="M 600.378906 253.292969 C 597.550781 253.292969 594.695312 253.378906 591.839844 253.542969 C 578.507812 191.449219 523.863281 146.394531 458.75 146.394531 C 441.890625 146.394531 425.578125 149.402344 410.09375 155.363281 C 381.917969 117.71875 338.160156 95.628906 290.488281 95.628906 C 211.074219 95.628906 145.921875 157.824219 141.183594 236.0625 C 60.917969 246.699219 0.0507812 314.898438 0.0507812 397.519531 C 0.0507812 487.367188 73.140625 560.460938 162.957031 560.460938 L 164.203125 560.46875 C 174.019531 560.488281 196.144531 560.550781 225.417969 560.617188 C 234.230469 560.617188 241.371094 553.472656 241.371094 544.664062 C 241.371094 535.847656 234.230469 528.703125 225.417969 528.703125 C 225.410156 528.703125 225.40625 528.703125 225.398438 528.703125 C 196.179688 528.640625 174.09375 528.578125 164.292969 528.558594 L 162.984375 528.546875 C 90.738281 528.546875 31.957031 469.773438 31.957031 397.519531 C 31.957031 326.953125 87.167969 269.46875 157.644531 266.640625 L 173.59375 266 L 172.949219 250.058594 C 172.886719 248.441406 172.824219 246.824219 172.824219 245.199219 C 172.824219 180.320312 225.601562 127.535156 290.488281 127.535156 C 331.703125 127.535156 369.199219 148.535156 390.796875 183.691406 L 398.5 196.230469 L 411.621094 189.566406 C 426.339844 182.09375 442.195312 178.304688 458.75 178.304688 C 512.804688 178.304688 557.425781 218.835938 562.546875 272.59375 L 564.167969 289.625 L 581.042969 286.820312 C 587.488281 285.75 593.996094 285.207031 600.378906 285.207031 C 665.261719 285.207031 718.039062 337.984375 718.039062 402.859375 C 718.039062 469.285156 663.546875 528.019531 601.417969 528.546875 L 599.667969 528.648438 C 596.480469 528.792969 581.601562 528.992188 524.582031 529.054688 L 524.582031 529.074219 C 515.835938 529.140625 508.75 536.246094 508.75 545.011719 C 508.75 553.78125 515.835938 560.886719 524.582031 560.953125 L 524.582031 560.96875 C 583.328125 560.90625 597.695312 560.6875 602.027344 560.453125 C 682.246094 559.566406 749.949219 487.484375 749.949219 402.859375 C 749.949219 320.390625 682.855469 253.292969 600.378906 253.292969 " fill-opacity="1" fill-rule="nonzero"/></g></svg>